<svg width="20" height="20" viewBox="0 0 20 20" fill="none" xmlns="http://www.w3.org/2000/svg">
<path d="M12.2206 15.2118L12.2189 15.2147C11.9317 15.6723 11.6964 16.1214 11.5152 16.5618C10.9694 15.229 9.93046 13.8205 8.3623 12.6441C7.70933 12.1516 7.03757 11.7589 6.35552 11.4783C8.01601 10.8088 9.55307 9.60074 10.6106 8.06691C10.9825 7.52959 11.2853 6.9878 11.5128 6.43246C12.1337 7.95297 13.3483 9.4305 14.8407 10.4867C15.4219 10.9001 16.024 11.2367 16.6432 11.4878C14.9048 12.2234 13.1775 13.7018 12.2206 15.2118Z" stroke="#E5E5E5" stroke-width="1.5"/>
<path d="M4.80682 6.44722L4.80682 6.44722L4.80563 6.4491C4.69179 6.63054 4.59247 6.81014 4.50835 6.9878C4.18992 6.31467 3.6472 5.62355 2.86827 5.03922C2.57595 4.81875 2.27581 4.63411 1.97037 4.48956C2.8029 4.10916 3.56382 3.484 4.10019 2.70606C4.25883 2.47687 4.39499 2.24545 4.50676 2.00949C4.86867 2.77499 5.49325 3.50201 6.24322 4.03278C6.4987 4.21452 6.76218 4.36956 7.03252 4.4952C6.14656 4.92226 5.29499 5.67683 4.80682 6.44722Z" stroke="#E5E5E5"/>
</svg>
