<svg width="20" height="20" viewBox="0 0 20 20" fill="none" xmlns="http://www.w3.org/2000/svg">
<g clip-path="url(#clip0_29_209)">
<path d="M5.63333 4.03331L4.13333 2.54165L2.95833 3.71665L4.45 5.20831L5.63333 4.03331ZM0.833332 8.74998H3.33333V10.4166H0.833332V8.74998ZM9.16666 0.458313H10.8333V2.91665H9.16666V0.458313ZM15.8667 2.53748L17.04 3.70998L15.5483 5.20165L14.3758 4.02831L15.8667 2.53748ZM14.3667 15.1333L15.8583 16.6333L17.0333 15.4583L15.5333 13.9666L14.3667 15.1333ZM16.6667 8.74998H19.1667V10.4166H16.6667V8.74998ZM10 4.58331C7.24166 4.58331 5 6.82498 5 9.58331C5 12.3416 7.24166 14.5833 10 14.5833C12.7583 14.5833 15 12.3416 15 9.58331C15 6.82498 12.7583 4.58331 10 4.58331ZM10 12.9166C8.15833 12.9166 6.66667 11.425 6.66667 9.58331C6.66667 7.74165 8.15833 6.24998 10 6.24998C11.8417 6.24998 13.3333 7.74165 13.3333 9.58331C13.3333 11.425 11.8417 12.9166 10 12.9166ZM9.16666 16.25H10.8333V18.7083H9.16666V16.25ZM2.95833 15.45L4.13333 16.625L5.625 15.125L4.45 13.95L2.95833 15.45Z" fill="#E5E5E5"/>
</g>
<defs>
<clipPath id="clip0_29_209">
<rect width="20" height="20" fill="white"/>
</clipPath>
</defs>
</svg>
